<svg xmlns="http://www.w3.org/2000/svg" width="500" height="400" viewBox="0 0 500 400">
  <style>
    .st0{fill:#4A6CF7;}
    .st1{fill:#F5F5F5;}
    .st2{fill:#333333;}
    .st3{fill:#FFC107;}
  </style>
  <g id="hero-illustration">
    <rect x="100" y="80" width="300" height="240" rx="10" class="st1"/>
    <rect x="120" y="110" width="260" height="160" rx="5" class="st0"/>
    <circle cx="250" cy="190" r="50" class="st1"/>
    <path d="M230,190 L280,190 M250,170 L250,210" stroke="#333333" stroke-width="8" stroke-linecap="round"/>
    <rect x="120" y="290" width="80" height="15" rx="3" class="st3"/>
    <rect x="210" y="290" width="60" height="15" rx="3" class="st3"/>
    <rect x="280" y="290" width="100" height="15" rx="3" class="st3"/>
    <path d="M50,150 C70,130 90,140 100,160 L100,240 C90,260 70,270 50,250 Z" class="st0"/>
    <path d="M450,150 C430,130 410,140 400,160 L400,240 C410,260 430,270 450,250 Z" class="st0"/>
    <circle cx="50" cy="200" r="20" class="st3"/>
    <circle cx="450" cy="200" r="20" class="st3"/>
  </g>
</svg>